<?xml version="1.0" encoding="utf-8"?>
<!-- Generator: Adobe Illustrator 24.3.0, SVG Export Plug-In . SVG Version: 6.00 Build 0)  -->
<svg version="1.1" id="Calque_1" xmlns="http://www.w3.org/2000/svg" xmlns:xlink="http://www.w3.org/1999/xlink" x="0px" y="0px"
	 viewBox="0 0 1283.5 181.3" style="enable-background:new 0 0 1283.5 181.3;" xml:space="preserve">
<style type="text/css">
	.st0{fill:#FF6900;}
	.st1{fill:#FFFFFF;}
</style>
<g>
	<g>
		<g>
			<polygon class="st0" points="316.2,120.3 402.6,0.3 450.4,0.3 316.2,181.1 			"/>
			<polygon class="st0" points="316.2,0.3 316.2,113 363.2,49.3 362.7,0.3 			"/>
			<polygon class="st0" points="453.6,179.5 396.9,80.5 368.1,118.8 402.9,179.9 			"/>
			<path class="st0" d="M100.7,51.3c5.2,0,9.8,1,13.7,3c3.9,2,7.1,4.7,9.6,8.2c2.5,3.5,4.3,7.5,5.6,12.1c1.2,4.6,1.9,9.6,1.9,14.9
				v57.5h-22.4V89.4c0-4.3-1.6-8.1-4.7-11.2c-3-3.1-6.7-4.7-11.2-4.7s-8.2,1.6-11.2,4.7c-3.1,3.1-4.7,6.8-4.7,11.2v57.5H55V89.4
				c0-4.3-1.6-8.1-4.7-11.2c-1.5-1.6-3.2-2.8-5.1-3.5c-1.9-0.7-3.9-1.1-6.1-1.1c-4.6,0-8.4,1.6-11.4,4.7c-3.1,3.1-4.7,6.8-4.7,11.2
				V147h-22V53.9h22.4v8.2c3.6-3.1,7.4-5.7,11.4-7.7c4-2.1,8-3.1,12.1-3.1c5.6,0,10.2,1.1,13.8,3.4c3.6,2.2,6.8,5.3,9.7,9.3
				c3.4-3.6,7.7-6.6,13-9C88.7,52.5,94.5,51.3,100.7,51.3z"/>
			<path class="st0" d="M238.9,53.7v93.1h-22.4v-46.5c0-7.4-2.6-13.8-7.8-19c-5.2-5.2-11.5-7.8-19-7.8c-3.6,0-7,0.7-10.3,2.1
				c-3.3,1.4-6.2,3.3-8.7,5.8c-5.2,5.2-7.8,11.5-7.8,19c0,7.3,2.6,13.6,7.8,18.8c2.5,2.6,5.4,4.6,8.7,5.9c3.3,1.3,6.7,2,10.3,2
				c3.7,0,7.1-0.6,10.1-1.9l8,19.9c-5.7,2.9-12.4,4.3-19.9,4.3c-6.8,0-13.1-1.3-18.9-3.8s-10.8-6-15-10.5c-4.2-4.5-7.5-9.7-9.9-15.6
				c-2.4-6-3.5-12.3-3.5-19c0-6.8,1.2-13.2,3.5-19.2c2.4-6,5.7-11.2,9.9-15.6c4.2-4.5,9.2-8,15-10.5c5.8-2.5,12.1-3.8,18.9-3.8
				c6.1,0,11.5,0.9,16.2,2.8c4.7,1.9,8.9,4.2,12.5,7.1V54h22.3V53.7z"/>
			<path class="st0" d="M286.1,53.9c4.4-1.9,9.4-2.8,15-2.8v22.4c-7.5,0-13.8,2.6-19,7.8c-5.2,5.5-7.8,11.8-7.8,19v46.7H252v-46.7
				V53.7h22.4V61C277.7,58.1,281.7,55.7,286.1,53.9z"/>
			<path class="st0" d="M485.7,51.3c6.8,0,13.2,1.3,19.2,3.8c6,2.5,11.2,6.1,15.6,10.5c4.5,4.5,8,9.7,10.5,15.6
				c2.5,6,3.8,12.4,3.8,19.2c0,6.7-1.3,13-3.8,19c-2.5,6-6.1,11.2-10.5,15.6c-4.5,4.5-9.7,8-15.6,10.5c-6,2.5-12.4,3.8-19.2,3.8
				s-13.2-1.3-19.2-3.8c-6-2.5-11.2-6-15.6-10.5c-4.5-4.5-8-9.7-10.5-15.6c-2.5-6-3.8-12.3-3.8-19c0-6.8,1.3-13.2,3.8-19.2
				c2.5-6,6.1-11.2,10.5-15.6c4.5-4.5,9.7-8,15.6-10.5C472.5,52.5,478.9,51.3,485.7,51.3z M485.7,73.5c-7.5,0-13.8,2.6-19,7.8
				c-5.2,5.2-7.8,11.5-7.8,19c0,7.3,2.6,13.6,7.8,18.8c2.5,2.6,5.4,4.6,8.7,5.9c3.3,1.3,6.7,2,10.3,2s7-0.7,10.2-2
				c3.2-1.3,6.1-3.3,8.8-5.9c5.2-5.2,7.8-11.5,7.8-18.8c0-7.4-2.6-13.8-7.8-19C499.2,76.1,492.9,73.5,485.7,73.5z"/>
			<path class="st0" d="M631.3,53.9v92.9H609v-7.1c-3.4,2.9-7.1,5.2-11.4,7c-4.2,1.8-8.9,2.7-14.2,2.7c-6.1,0-11.6-1.1-16.6-3.4
				c-5-2.3-9.2-5.4-12.8-9.4c-3.5-4-6.3-8.6-8.2-14c-1.9-5.3-2.9-11.1-2.9-17.1V53.9h22.4v51.7c0,5.8,2.2,10.9,6.5,15.3
				c4.2,4.2,9.3,6.3,15.3,6.3c6.1,0,11.2-2.1,15.5-6.3c4.2-4.2,6.3-9.3,6.3-15.3V53.9H631.3z"/>
			<path class="st0" d="M694.3,51.5c6.8,0,13.1,1.3,18.9,3.8c5.8,2.5,10.8,6.1,15,10.5c4.2,4.5,7.5,9.7,9.9,15.6
				c2.4,6,3.5,12.4,3.5,19.2c0,6.7-1.2,13-3.5,19c-2.4,6-5.7,11.2-9.9,15.6c-4.2,4.5-9.2,8-15,10.5s-12.1,3.8-18.9,3.8
				c-7.3,0-14-1.4-19.9-4.3l8-19.9c3,1.2,6.3,1.9,10.1,1.9c7.6,0,13.9-2.6,19-7.8c5.2-5.2,7.8-11.5,7.8-18.8c0-7.5-2.6-13.8-7.8-19
				c-5.2-5.2-11.5-7.8-19-7.8c-7.2,0-13.5,2.6-19,7.8c-5.2,5.2-7.8,11.6-7.8,19v39v7.5h-22.4V16.6h22.4v44.6
				c3.6-2.9,7.8-5.2,12.5-7.1C682.8,52.4,688.2,51.5,694.3,51.5z"/>
		</g>
		<g>
			<polygon class="st1" points="393.9,47.3 392,45.6 399.8,34.6 402,36.1 			"/>
			<polygon class="st1" points="342.7,116.5 340.8,114.8 348.6,103.8 350.8,105.3 			"/>
			<polygon class="st1" points="368.8,80.8 366.9,79.1 374.7,68.1 376.8,69.5 			"/>
			<polygon class="st1" points="419.7,12.4 417.8,10.9 425.6,0.4 428.5,0.2 			"/>
			<polyline class="st1" points="316.4,149.1 316.4,152.9 325.7,140 323.8,138.7 			"/>
		</g>
		<path class="st0" d="M1033.3,53.7v93.1H1011v-46.5c0-7.4-2.6-13.8-7.8-19c-5.2-5.2-11.5-7.8-19-7.8c-3.6,0-7,0.7-10.3,2.1
			c-3.3,1.4-6.2,3.3-8.7,5.8c-5.2,5.2-7.8,11.5-7.8,19c0,7.3,2.6,13.6,7.8,18.8c2.5,2.6,5.4,4.6,8.7,5.9c3.3,1.3,6.7,2,10.3,2
			c3.7,0,7.1-0.6,10.1-1.9l8,19.9c-5.7,2.9-12.4,4.3-19.9,4.3c-6.8,0-13.1-1.3-18.9-3.8s-10.8-6-15-10.5c-4.2-4.5-7.5-9.7-9.9-15.6
			c-2.4-6-3.5-12.3-3.5-19c0-6.8,1.2-13.2,3.5-19.2c2.4-6,5.6-11.2,9.9-15.6c4.2-4.5,9.2-8,15-10.5c5.8-2.5,12.1-3.8,18.9-3.8
			c6.1,0,11.5,0.9,16.2,2.8c4.7,1.9,8.9,4.2,12.5,7.1V54h22.3V53.7z"/>
		<path class="st0" d="M756.4,146.8v-22.4h22.4v22.4H756.4z"/>
		<path class="st0" d="M895.2,51.3c5.2,0,9.8,1,13.7,3c3.9,2,7.1,4.7,9.6,8.2c2.5,3.5,4.3,7.5,5.6,12.1c1.2,4.6,1.9,9.6,1.9,14.9
			v57.5h-22.4V89.4c0-4.3-1.6-8.1-4.7-11.2c-3-3.1-6.7-4.7-11.2-4.7c-4.5,0-8.2,1.6-11.2,4.7c-3.1,3.1-4.7,6.8-4.7,11.2v57.5h-22.2
			V89.4c0-4.3-1.6-8.1-4.7-11.2c-1.5-1.6-3.2-2.8-5.1-3.5c-1.9-0.7-3.9-1.1-6.1-1.1c-4.6,0-8.4,1.6-11.4,4.7
			c-3.1,3.1-4.7,6.8-4.7,11.2V147h-22.4V53.9h22.4v8.2c3.6-3.1,7.4-5.7,11.4-7.7c4-2.1,8-3.1,12.1-3.1c5.6,0,10.2,1.1,13.8,3.4
			c3.6,2.2,6.8,5.3,9.7,9.3c3.4-3.6,7.7-6.6,13-9C883,52.5,888.9,51.3,895.2,51.3z"/>
	</g>
	<g>
		<path d="M1088,1.2h28.4c14.6,0,24.5,8.2,24.5,21.4c0,14.8-11,21.9-24.9,21.9h-14.7v27.3H1088V1.2z M1101.2,33.9h13.3
			c8,0,12.9-3.4,12.9-11c0-7.7-5.5-11-12.6-11h-13.6V33.9z"/>
		<path d="M1217.9,36.2c0,19.6-11.5,36.6-34.2,36.6c-21.7,0-33.3-16.1-33.3-36.4c0-20.4,12.5-36.4,34.2-36.4
			C1205.1,0.2,1217.9,14.8,1217.9,36.2z M1164.1,36.2c0,14.3,6.7,25.7,20.1,25.7c14.6,0,20-12.1,20-25.6c0-14-6.1-25.3-20.1-25.3
			C1170.2,11.1,1164.1,22,1164.1,36.2z"/>
		<path d="M1239.9,51.5c1.7,7.6,7,11.2,15.9,11.2c9.1,0,12.9-3.9,12.9-9.6c0-6.2-3.4-9.2-16.2-12.2c-18.3-4.4-23.5-10.9-23.5-20.6
			c0-11.7,8.7-20.1,25.1-20.1c18.1,0,25.4,10,26.4,19.9h-13.4c-0.9-5-3.8-9.9-13.4-9.9c-7,0-11.1,3-11.1,8.6
			c0,5.5,3.3,7.7,15.1,10.5c20.4,4.9,24.6,12.6,24.6,22.2c0,12.4-9.3,21.3-27.5,21.3c-17.9,0-26.7-9.1-28.3-21.3H1239.9z"/>
	</g>
</g>
</svg>
